Coordinates
nRows=223
nColumns=2
inDegrees=yes
endheader
time	ankle_angle_r	
2.69456	 -0.411936	
2.72782	 -0.402999	
2.76109	 -0.403655	
2.79435	 -0.409683	
2.82762	 -0.415715	
2.86089	 -0.422402	
2.89415	 -0.428461	
2.92742	 -0.430844	
2.96069	 -0.429419	
2.99395	 -0.426789	
3.02722	 -0.426921	
3.06048	 -0.430191	
3.09375	 -0.432136	
3.12702	 -0.430715	
3.16028	 -0.426987	
3.19355	 -0.423040	
3.22681	 -0.423787	
3.26008	 -0.430366	
3.29335	 -0.436806	
3.32661	 -0.440110	
3.35988	 -0.441980	
3.39315	 -0.442413	
3.42641	 -0.441355	
3.45968	 -0.439738	
3.49294	 -0.437093	
3.52621	 -0.434311	
3.55948	 -0.434461	
3.59274	 -0.438615	
3.62601	 -0.444771	
3.65927	 -0.448791	
3.69254	 -0.445926	
3.72581	 -0.435196	
3.75907	 -0.420598	
3.79234	 -0.407718	
3.8256	 -0.400891	
3.85887	 -0.400325	
3.89214	 -0.401635	
3.9254	 -0.400301	
3.95867	 -0.395139	
3.99194	 -0.388542	
4.0252	 -0.385037	
4.05847	 -0.385749	
4.09173	 -0.386038	
4.125	 -0.383830	
4.15827	 -0.382586	
4.19153	 -0.383941	
4.2248	 -0.386347	
4.25806	 -0.387968	
4.29133	 -0.387152	
4.3246	 -0.382519	
4.35786	 -0.373120	
4.39113	 -0.362181	
4.4244	 -0.358303	
4.45766	 -0.364932	
4.49093	 -0.374828	
4.52419	 -0.380042	
4.55746	 -0.377403	
4.59073	 -0.368255	
4.62399	 -0.358931	
4.65726	 -0.353061	
4.69052	 -0.349715	
4.72379	 -0.349002	
4.75706	 -0.348217	
4.79032	 -0.344304	
4.82359	 -0.342202	
4.85685	 -0.347302	
4.89012	 -0.357648	
4.92339	 -0.368651	
4.95665	 -0.376487	
4.98992	 -0.380319	
5.02319	 -0.382852	
5.05645	 -0.384759	
5.08972	 -0.385239	
5.12298	 -0.385561	
5.15625	 -0.386229	
5.18952	 -0.389049	
5.22278	 -0.398179	
5.25605	 -0.411141	
5.28931	 -0.422201	
5.32258	 -0.434076	
5.35585	 -0.449394	
5.38911	 -0.460565	
5.42238	 -0.459522	
5.45565	 -0.447947	
5.48891	 -0.436948	
5.52218	 -0.435768	
5.55544	 -0.438405	
5.58871	 -0.434172	
5.62198	 -0.424953	
5.65524	 -0.417242	
5.68851	 -0.413015	
5.72177	 -0.412538	
5.75504	 -0.414403	
5.78831	 -0.417377	
5.82157	 -0.420733	
5.85484	 -0.421332	
5.8881	 -0.418496	
5.92137	 -0.416053	
5.95464	 -0.416930	
5.9879	 -0.422631	
6.02117	 -0.431158	
6.05444	 -0.436212	
6.0877	 -0.436982	
6.12097	 -0.437639	
6.15423	 -0.437551	
6.1875	 -0.434836	
6.22077	 -0.430783	
6.25403	 -0.426031	
6.2873	 -0.420491	
6.32056	 -0.414095	
6.35383	 -0.408420	
6.3871	 -0.409010	
6.42036	 -0.415232	
6.45363	 -0.416095	
6.4869	 -0.408295	
6.52016	 -0.401651	
6.55343	 -0.403389	
6.58669	 -0.412328	
6.61996	 -0.421701	
6.65323	 -0.422487	
6.68649	 -0.413626	
6.71976	 -0.403648	
6.75302	 -0.398768	
6.78629	 -0.398880	
6.81956	 -0.401020	
6.85282	 -0.401820	
6.88609	 -0.401383	
6.91935	 -0.400107	
6.95262	 -0.394319	
6.98589	 -0.384376	
7.01915	 -0.376123	
7.05242	 -0.373968	
7.08569	 -0.380152	
7.11895	 -0.389026	
7.15222	 -0.390764	
7.18548	 -0.387861	
7.21875	 -0.386146	
7.25202	 -0.379677	
7.28528	 -0.364015	
7.31855	 -0.346905	
7.35181	 -0.338522	
7.38508	 -0.341157	
7.41835	 -0.348108	
7.45161	 -0.352205	
7.48488	 -0.352787	
7.51815	 -0.350674	
7.55141	 -0.346351	
7.58468	 -0.344339	
7.61794	 -0.346942	
7.65121	 -0.349905	
7.68448	 -0.349306	
7.71774	 -0.344485	
7.75101	 -0.339724	
7.78427	 -0.341024	
7.81754	 -0.346231	
7.85081	 -0.349999	
7.88407	 -0.352138	
7.91734	 -0.352226	
7.9506	 -0.349538	
7.98387	 -0.346336	
8.01714	 -0.341362	
8.0504	 -0.332550	
8.08367	 -0.326997	
8.11694	 -0.333019	
8.1502	 -0.348057	
8.18347	 -0.361577	
8.21673	 -0.364450	
8.25	 -0.357651	
8.28327	 -0.350068	
8.31653	 -0.344843	
8.3498	 -0.338583	
8.38306	 -0.332839	
8.41633	 -0.333488	
8.4496	 -0.341612	
8.48286	 -0.352445	
8.51613	 -0.361561	
8.5494	 -0.368006	
8.58266	 -0.370616	
8.61593	 -0.367518	
8.64919	 -0.361864	
8.68246	 -0.359653	
8.71573	 -0.361327	
8.74899	 -0.362120	
8.78226	 -0.358712	
8.81552	 -0.354624	
8.84879	 -0.358167	
8.88206	 -0.370609	
8.91532	 -0.382606	
8.94859	 -0.386759	
8.98185	 -0.385080	
9.01512	 -0.383382	
9.04839	 -0.384891	
9.08165	 -0.388766	
9.11492	 -0.392777	
9.14819	 -0.395799	
9.18145	 -0.397754	
9.21472	 -0.400612	
9.24798	 -0.407253	
9.28125	 -0.415708	
9.31452	 -0.421633	
9.34778	 -0.426992	
9.38105	 -0.434004	
9.41431	 -0.437715	
9.44758	 -0.436192	
9.48085	 -0.434785	
9.51411	 -0.437014	
9.54738	 -0.441747	
9.58065	 -0.444907	
9.61391	 -0.442543	
9.64718	 -0.437268	
9.68044	 -0.434731	
9.71371	 -0.434700	
9.74698	 -0.436126	
9.78024	 -0.441871	
9.81351	 -0.450330	
9.84677	 -0.454310	
9.88004	 -0.449007	
9.91331	 -0.435198	
9.94657	 -0.419329	
9.97984	 -0.408309	
10.0131	 -0.404654	
10.0464	 -0.411010	
10.0796	 -0.427319	
